<svg width="32" height="32" viewBox="0 0 32 32" fill="none" xmlns="http://www.w3.org/2000/svg">
<path fill-rule="evenodd" clip-rule="evenodd" d="M16.0009 11.7062C10.3863 11.7062 7.06174 13.574 7.06174 18.9618C7.06174 21.1904 9.11535 23.5069 11.1729 25.4332C13.1042 27.2407 15.0861 28.9268 16.0009 28.9268C16.9157 28.9268 18.8972 27.2409 20.8285 25.4332C22.886 23.5074 24.9397 21.1906 24.9397 18.9618C24.9397 13.574 21.6151 11.7062 16.0009 11.7062V11.7062ZM12.2427 16.3853C12.2427 16.2121 12.294 16.0429 12.3902 15.8989C12.4864 15.7549 12.6232 15.6426 12.7832 15.5764C12.9432 15.5101 13.1192 15.4928 13.2891 15.5265C13.459 15.5603 13.615 15.6437 13.7374 15.7662C13.8599 15.8886 13.9433 16.0446 13.9771 16.2145C14.0109 16.3844 13.9935 16.5604 13.9272 16.7204C13.861 16.8804 13.7487 17.0172 13.6047 17.1134C13.4607 17.2096 13.2915 17.2609 13.1183 17.2609C12.8861 17.2609 12.6634 17.1686 12.4992 17.0044C12.335 16.8402 12.2427 16.6175 12.2427 16.3853V16.3853ZM16.0009 23.7493C14.5834 23.7493 13.4344 22.8185 13.4344 21.6704C13.4344 20.5222 14.5832 19.5915 16.0009 19.5915C17.4185 19.5915 18.5673 20.5222 18.5673 21.6704C18.5673 22.8185 17.4182 23.7493 16.0009 23.7493ZM18.884 17.2608C18.7108 17.2608 18.5415 17.2094 18.3975 17.1132C18.2535 17.017 18.1413 16.8802 18.075 16.7202C18.0087 16.5602 17.9914 16.3842 18.0252 16.2143C18.059 16.0445 18.1424 15.8885 18.2648 15.766C18.3873 15.6435 18.5433 15.5602 18.7131 15.5264C18.883 15.4926 19.059 15.5099 19.219 15.5762C19.379 15.6425 19.5158 15.7547 19.612 15.8987C19.7082 16.0427 19.7596 16.212 19.7596 16.3852C19.7596 16.5002 19.7369 16.6142 19.6929 16.7205C19.6488 16.8268 19.5843 16.9233 19.5029 17.0047C19.4215 17.086 19.3248 17.1505 19.2185 17.1944C19.1121 17.2384 18.9982 17.2609 18.8831 17.2608H18.884ZM6.18256 17.0037C4.38351 17.0545 3.72633 14.591 4.47526 13.1695C5.22927 11.8227 6.08878 11.5414 6.67625 11.5414C7.39804 11.5414 8.23957 11.7125 8.65422 12.6034C7.38905 13.5943 6.51887 15.0206 6.18256 17.0042" fill="#79756C"/>
<path fill-rule="evenodd" clip-rule="evenodd" d="M16.0008 3.0625C16.5159 3.06691 16.8411 6.10603 17.1328 6.74795C17.2823 7.07713 17.5465 6.90058 17.7434 6.39892C18.2498 5.11086 19.2445 3.43968 19.4849 3.50378C19.7254 3.56789 19.5457 5.35609 19.4017 6.69673C19.3372 7.29523 19.5574 7.38019 19.9217 6.90024C20.0404 6.74422 20.7247 5.83485 21.012 5.90472C21.0798 5.92168 21.1582 5.97765 21.1719 6.32718C21.1819 6.58802 21.4977 6.45285 21.9363 6.04091C22.5858 5.43139 23.2228 4.82696 23.3663 4.95347C23.4992 5.07083 23.1668 6.05329 22.8549 6.9596C22.6587 7.52927 22.7208 7.80282 23.0264 7.60134C23.1604 7.51315 23.6314 7.20806 23.767 7.38189C23.8021 7.42666 23.8596 7.49179 23.7195 7.87558C23.622 8.1432 23.9263 8.08282 24.4371 7.76415C25.1314 7.33118 25.8278 6.9055 25.9332 7.00352C26.0749 7.13377 25.6198 7.96767 25.1307 8.86991C24.8436 9.39938 25.1748 9.44161 25.5155 9.22792C25.8779 9.01406 26.263 8.84126 26.6637 8.71269C26.8569 8.66639 27.6316 8.17186 26.9988 9.8276C26.8881 10.1171 27.1872 10.2007 27.4462 10.1386C28.1431 9.97278 28.4346 9.8371 29.2313 9.8371C29.2979 9.82831 29.3656 9.83598 29.4285 9.85942C29.4913 9.88287 29.5475 9.92138 29.5921 9.97159C29.6925 10.1293 29.5943 10.3769 28.602 11.3933C28.4806 11.5178 28.5002 11.6292 28.8645 11.706C31.0165 12.161 30.8773 12.5487 30.8444 12.6573C30.8104 12.7685 30.3912 12.9088 29.8437 13.1868C29.4615 13.3804 29.577 13.7072 30.1061 13.9942C31.5112 14.7574 31.4318 15.0557 31.4166 15.1205C31.404 15.1735 31.3754 15.2787 31.0691 15.3598C30.8308 15.422 30.976 15.6664 31.3789 15.9781C31.7422 16.261 32.0461 16.5038 31.9942 16.6361C31.9423 16.7684 31.5702 16.8159 31.1111 16.8927C30.6047 16.9745 30.4599 17.2448 30.7614 17.5552C31.2193 18.0232 31.1515 18.1442 31.1006 18.2032C31.0403 18.2491 30.9712 18.2824 30.8976 18.3009C30.824 18.3194 30.7475 18.3228 30.6726 18.3109C30.4316 18.3022 30.5199 18.3979 30.6261 18.471C30.8466 18.6236 31.9291 19.478 31.8902 19.6593C31.8743 19.7421 31.557 19.6829 31.1101 19.5915C30.6741 19.5045 30.4721 19.4105 30.5428 19.6763C30.6135 19.942 30.2565 20.1075 29.9798 20.1449C29.8132 20.1649 29.6455 20.1736 29.4778 20.1708C28.949 20.1708 28.8581 20.6747 28.5645 21.1448C27.3222 23.1256 24.8202 24.4688 23.0527 24.6764C24.5665 23.0458 25.974 21.0423 25.974 18.9611C25.974 18.6417 25.9624 18.3336 25.9414 18.037C28.4985 17.9847 29.5129 14.7211 28.4412 12.6868L28.4351 12.6753L28.4285 12.6637C27.7733 11.4935 26.741 10.5063 25.3249 10.5058C24.1154 10.5058 23.0535 10.9361 22.48 12.0238C20.7671 11.0527 18.5269 10.6715 16.0003 10.6715C13.4737 10.6715 11.2347 11.0529 9.52062 12.0238C8.94706 10.9362 7.8854 10.5056 6.67552 10.5058C5.26008 10.5058 4.2276 11.4939 3.57195 12.6637L3.5655 12.6753L3.5594 12.6868C2.48773 14.7211 3.5019 17.9847 6.05921 18.037C6.0373 18.3445 6.02644 18.6528 6.02665 18.9611C6.02665 21.0425 7.43428 23.0459 8.94774 24.6764C7.17989 24.4686 4.67787 23.1256 3.43593 21.1448C3.14219 20.6745 3.05146 20.1708 2.52267 20.1708C2.355 20.1736 2.18733 20.1649 2.02084 20.1449C1.74389 20.1075 1.38673 19.9424 1.45762 19.6763C1.52851 19.4102 1.32635 19.5041 0.890665 19.5915C0.443785 19.683 0.126135 19.7424 0.110533 19.6593C0.0715262 19.478 1.15438 18.6238 1.37452 18.471C1.48 18.3977 1.56904 18.3014 1.32822 18.3109C1.25324 18.3228 1.17662 18.3194 1.103 18.3009C1.02937 18.2824 0.960254 18.2491 0.899823 18.2032C0.848945 18.1442 0.781107 18.0232 1.23901 17.5552C1.54021 17.2448 1.39555 16.9745 0.889308 16.8927C0.431405 16.8157 0.0582978 16.7674 0.00589329 16.6361C-0.0465112 16.5049 0.25808 16.261 0.62118 15.9781C1.02414 15.6664 1.16948 15.4218 0.931198 15.3598C0.624742 15.2787 0.595911 15.1732 0.5837 15.1205C0.568267 15.0555 0.489236 14.7577 1.89398 13.9942C2.42329 13.7071 2.53844 13.3804 2.15651 13.1868C1.6089 12.9088 1.18983 12.7684 1.15591 12.6573C1.12318 12.5487 0.983772 12.161 3.13575 11.706C3.4997 11.6292 3.51971 11.5178 3.39828 11.3933C2.40616 10.3769 2.30762 10.1293 2.40836 9.97159C2.45291 9.92138 2.50909 9.88287 2.57198 9.85942C2.63487 9.83598 2.70255 9.82831 2.76909 9.8371C3.56618 9.8371 3.8572 9.97278 4.55406 10.1386C4.8132 10.2004 5.1122 10.1171 5.00145 9.8276C4.36853 8.17203 5.14323 8.66639 5.33657 8.71269C5.73724 8.84126 6.12233 9.01406 6.48472 9.22792C6.82561 9.44144 7.15648 9.39938 6.8697 8.86991C6.38042 7.96767 5.9254 7.13377 6.06718 7.00352C6.17318 6.9055 6.86885 7.33118 7.56317 7.76415C8.07433 8.08282 8.37841 8.14337 8.28072 7.87558C8.14064 7.49179 8.19813 7.42666 8.23341 7.38189C8.36908 7.20806 8.84004 7.51315 8.97385 7.60134C9.27912 7.80299 9.3417 7.52927 9.14548 6.9596C8.83326 6.05346 8.50102 5.07083 8.63416 4.95347C8.77763 4.82679 9.41429 5.43122 10.064 6.04091C10.5029 6.45285 10.8185 6.58802 10.8287 6.32718C10.8421 5.97765 10.9206 5.92135 10.9886 5.90472C11.2759 5.83485 11.9604 6.74422 12.0788 6.90024C12.4429 7.38002 12.6632 7.29506 12.5989 6.69673C12.4546 5.35609 12.2767 3.56704 12.5155 3.50378C12.7543 3.44053 13.7506 5.11086 14.2574 6.39892C14.4546 6.90058 14.7188 7.0773 14.8679 6.74795C15.1593 6.10603 15.4846 3.06776 16 3.0625" fill="#FF760C"/>
<path fill-rule="evenodd" clip-rule="evenodd" d="M25.8191 17.0037C27.6182 17.0545 28.2754 14.591 27.5266 13.1695C26.7723 11.8227 25.9129 11.5414 25.3253 11.5414C24.6035 11.5414 23.7623 11.7125 23.3477 12.6034C24.6128 13.5943 25.483 15.0206 25.819 17.0042L25.8191 17.0037ZM16 20.6605C15.1766 20.6605 14.5076 21.1128 14.5076 21.6707C14.5076 22.2287 15.1764 22.6805 16 22.6805C16.8235 22.6805 17.4934 22.2287 17.4934 21.6707C17.4934 21.1128 16.8246 20.6605 16 20.6605ZM16 21.2925C15.3555 21.2925 14.8888 21.704 14.9005 21.5654C14.9344 21.1665 15.5619 20.9345 16 20.9345C16.4381 20.9345 17.0654 21.1663 17.0995 21.5654C17.1113 21.7038 16.6451 21.2925 16.0002 21.2925H16Z" fill="#79756C"/>
</svg>
