<svg width="32" height="32" viewBox="0 0 32 32" fill="none" xmlns="http://www.w3.org/2000/svg">
<path fill-rule="evenodd" clip-rule="evenodd" d="M16 0C24.8345 0 32 7.16549 32 16C32 24.8345 24.8345 32 16 32C7.16549 32 0 24.8345 0 16C0 7.16549 7.16549 0 16 0Z" fill="#007855"/>
<path fill-rule="evenodd" clip-rule="evenodd" d="M16 0.464355C24.5836 0.464355 31.5357 7.42279 31.5357 16C31.5357 24.5773 24.5836 31.5357 16 31.5357C7.41651 31.5357 0.464355 24.5836 0.464355 16C0.464355 7.41651 7.41651 0.464355 16 0.464355Z" fill="white"/>
<path fill-rule="evenodd" clip-rule="evenodd" d="M15.9999 1.0415C24.2635 1.0415 30.9584 7.73641 30.9584 15.9999C30.9584 24.2635 24.2635 30.9584 15.9999 30.9584C7.73641 30.9584 1.0415 24.2635 1.0415 15.9999C1.0415 7.73641 7.73641 1.0415 15.9999 1.0415Z" fill="#007855"/>
<path fill-rule="evenodd" clip-rule="evenodd" d="M16.0001 6.36243C21.3209 6.36243 25.6377 10.6793 25.6377 16.0001C25.6377 21.3209 21.3209 25.6377 16.0001 25.6377C10.6793 25.6377 6.36243 21.3209 6.36243 16.0001C6.36243 10.6793 10.6793 6.36243 16.0001 6.36243Z" fill="white"/>
<path d="M24.7981 8.79112L24.2398 9.37484L22.3514 7.56091L24.8169 4.98123L26.6927 6.77633L26.1344 7.36006L25.1745 6.44367L24.7918 6.84538L25.6952 7.71154L25.1369 8.29527L24.2335 7.4291L23.8194 7.86218L24.7981 8.79112ZM20.9964 3.76985L20.2373 5.45825L20.3941 5.52729C20.6764 5.65282 20.9085 5.68421 21.0905 5.61516C21.3038 5.52729 21.4731 5.34527 21.5986 5.07538C21.7241 4.79293 21.7492 4.53559 21.6676 4.30964C21.5986 4.12134 21.4167 3.95815 21.1218 3.82634L20.9964 3.76985ZM18.7253 5.72814L20.1871 2.4706L21.5861 3.09825C22.1883 3.36815 22.5836 3.73219 22.778 4.1841C22.9725 4.64857 22.9662 5.12559 22.7467 5.61516C22.6087 5.92272 22.4079 6.17378 22.1319 6.37463C21.8496 6.58176 21.5484 6.68218 21.2285 6.68218C21.0465 6.68218 20.8395 6.64452 20.6199 6.56921C20.507 6.53155 20.3125 6.44995 20.0428 6.3307L18.7253 5.72814ZM16.4167 4.50421C16.6174 4.51049 16.7806 4.43517 16.8935 4.27825C16.9939 4.14017 17.044 3.96442 17.0503 3.75102C17.0566 3.53762 17.0127 3.36187 16.9248 3.22379C16.8182 3.0606 16.6614 2.97272 16.4606 2.96645C16.2536 2.96017 16.0967 3.03549 15.9775 3.1924C15.8834 3.32421 15.827 3.49996 15.8207 3.71336C15.8144 3.92676 15.8584 4.10251 15.9462 4.24687C16.0591 4.41634 16.2159 4.49793 16.4167 4.50421V4.50421ZM16.3853 5.56495C15.8082 5.54612 15.3502 5.35155 15.0114 4.96868C14.6978 4.61719 14.5472 4.1841 14.5597 3.68198C14.5723 3.19868 14.7354 2.7907 15.0491 2.45804C15.4067 2.07517 15.8897 1.88687 16.492 1.9057C17.0691 1.92453 17.5271 2.11911 17.8659 2.50198C18.1796 2.85347 18.3301 3.28655 18.3176 3.78868C18.305 4.27198 18.1419 4.67995 17.8282 5.01261C17.4706 5.40176 16.9939 5.58378 16.3853 5.56495ZM13.8257 4.37868L14.1394 5.30134C13.97 5.46453 13.832 5.58378 13.7191 5.6591C13.5372 5.78463 13.3239 5.88506 13.0792 5.96665C12.502 6.16123 11.975 6.1424 11.5108 5.89761C11.0905 5.67793 10.8019 5.339 10.6451 4.8808C10.5008 4.454 10.507 4.03347 10.6576 3.62549C10.8521 3.09198 11.2787 2.71538 11.9311 2.48943C12.3201 2.35762 12.7153 2.30741 13.1106 2.33879L13.4493 3.34932C13.0604 3.23634 12.7153 3.22379 12.4142 3.33049C12.1068 3.43091 11.9123 3.61293 11.8308 3.864C11.768 4.0523 11.768 4.24687 11.837 4.44144C11.9186 4.67995 12.0692 4.84942 12.295 4.94985C12.5146 5.05027 12.7655 5.05027 13.0353 4.9624C13.3176 4.86825 13.5873 4.67368 13.8257 4.37868V4.37868ZM10.7517 6.71984L9.78559 7.54208L8.91358 6.51899L7.93491 7.35378L8.80693 8.37686L7.8408 9.19909L5.52588 6.48133L6.492 5.6591L7.32638 6.63825L8.30504 5.80346L7.47067 4.82432L8.43679 4.00208L10.7517 6.71984ZM20.5258 25.4743L20.5886 24.4951L21.6112 24.0056L21.0465 25.2232L20.5258 25.4743ZM23.4556 27.4012L23.8006 28.1293L21.4355 29.2653L19.8922 26.0454L22.2322 24.9219L22.5773 25.6437L21.379 26.2212L21.6174 26.7233L22.7467 26.1835L23.0917 26.9053L21.9625 27.4451L22.226 27.9912L23.4556 27.4012ZM18.97 29.9934L17.7279 30.2382L17.044 26.7359L19.5095 26.2526L19.6664 27.0434L18.443 27.2819L18.5497 27.828L19.7354 27.5958L19.8922 28.3866L18.7065 28.6188L18.97 29.9934ZM14.5974 27.8217L14.0767 28.8762L14.8671 28.9641L14.5974 27.8217ZM15.1871 30.2947L15.0491 29.7235L13.7316 29.5792L13.4619 30.1064L12.1695 29.962L14.0641 26.579L15.3816 26.7233L16.4857 30.4391L15.1871 30.2947ZM11.7053 28.4933L11.2536 29.3595C11.0215 29.3532 10.8395 29.3344 10.7015 29.303C10.4882 29.2591 10.2687 29.1775 10.0365 29.0519C9.49701 28.7695 9.15197 28.3741 9.0014 27.8719C8.86966 27.42 8.91357 26.9744 9.13942 26.5413C9.34645 26.1396 9.65385 25.8571 10.0554 25.6814C10.5761 25.4554 11.1407 25.4994 11.7555 25.8195C12.1193 26.0078 12.4267 26.2588 12.6777 26.5664L12.1821 27.5142C12.0001 27.1564 11.7617 26.8991 11.4794 26.7547C11.1909 26.6041 10.9274 26.5852 10.689 26.6982C10.507 26.7798 10.369 26.9179 10.2749 27.0999C10.1557 27.3259 10.1369 27.5518 10.2185 27.7841C10.3 28.01 10.4694 28.192 10.7266 28.3301C10.9964 28.4682 11.3226 28.5247 11.7053 28.4933V28.4933Z" fill="white"/>
<path fill-rule="evenodd" clip-rule="evenodd" d="M21.732 18.1746C22.7816 18.2061 23.165 16.7668 22.7314 15.9371C22.2914 15.1515 21.7886 14.9881 21.4429 14.9881C21.0218 14.9881 20.5316 15.0886 20.2864 15.6103C21.0281 16.1822 21.5309 17.0182 21.732 18.1746ZM7.08136 17.521C7.06251 17.3953 7.04365 17.2696 7.02479 17.1376C7.04994 17.1627 7.10022 17.1879 7.19449 17.213C7.31391 17.2507 7.25734 17.3638 7.08136 17.521V17.521ZM7.31391 18.5517C7.26992 18.4072 7.2322 18.2626 7.20078 18.1181C7.47104 18.1746 7.54018 18.3255 7.37048 18.5015C7.35162 18.5203 7.33277 18.5392 7.31391 18.5517V18.5517ZM7.46475 19.0231C7.45218 18.998 7.4459 18.9666 7.43333 18.9414C7.54646 18.9414 7.51504 18.9791 7.46475 19.0231ZM24.0952 20.0162C22.6685 22.8948 19.7585 24.8997 16.3582 25.038C16.9616 24.7615 17.8981 23.9507 18.8094 23.0959C20.0099 21.9709 21.2104 20.6195 21.2104 19.3122C21.2104 16.1634 19.2683 15.076 15.9874 15.076C12.7066 15.076 10.7645 16.1697 10.7645 19.3122C10.7645 20.6133 11.9649 21.9709 13.1654 23.0959C14.0767 23.9507 15.0132 24.7552 15.6166 25.038C12.2226 24.8997 9.3063 22.8948 7.87957 20.0162C7.94243 20.0225 8.01785 20.0225 8.11212 20.0225C8.4201 20.0225 8.47666 20.3179 8.64636 20.5944C9.36915 21.7509 10.8336 22.5365 11.8644 22.6559C10.9781 21.7006 10.1548 20.5316 10.1548 19.3185C10.1548 19.13 10.1611 18.954 10.1737 18.778C8.67779 18.7466 8.08698 16.8422 8.7155 15.6543L8.72178 15.648L8.72807 15.6417C9.11146 14.9566 9.71484 14.3784 10.5382 14.3784C11.2421 14.3784 11.8644 14.6298 12.1975 15.2646C13.1968 14.6989 14.5041 14.4727 15.9811 14.4727C17.4581 14.4727 18.7654 14.6927 19.7648 15.2646C20.0979 14.6298 20.7201 14.3784 21.4241 14.3784C22.2537 14.3784 22.8571 14.9566 23.2342 15.6417L23.2405 15.648L23.2467 15.6543C23.8753 16.8422 23.2782 18.7466 21.7886 18.778C21.8012 18.954 21.8074 19.13 21.8074 19.3185C21.8074 20.5378 20.9841 21.7069 20.0979 22.6559C21.1287 22.5365 22.5931 21.7509 23.3159 20.5944C23.4856 20.3179 23.5421 20.0225 23.8501 20.0225C23.957 20.0287 24.0324 20.0225 24.0952 20.0162V20.0162ZM24.5478 18.9414C24.5415 18.9666 24.5289 18.998 24.5163 19.0231C24.4724 18.9791 24.4409 18.9414 24.5478 18.9414ZM24.7866 18.1181C24.7489 18.2626 24.7112 18.4135 24.6735 18.5517C24.6546 18.5329 24.642 18.514 24.6232 18.4952C24.4472 18.3255 24.5226 18.1746 24.7866 18.1181ZM24.9626 17.1376C24.9437 17.2633 24.9249 17.3953 24.906 17.521C24.7238 17.3638 24.6735 17.2507 24.7929 17.2193C24.8872 17.1941 24.9375 17.1627 24.9626 17.1376ZM10.2554 18.1746C9.20574 18.2061 8.82235 16.7668 9.25602 15.9371C9.69598 15.1515 10.1988 14.9881 10.5445 14.9881C10.9656 14.9881 11.4558 15.0886 11.7009 15.6103C10.9593 16.1822 10.4565 17.0182 10.2554 18.1746ZM15.9937 20.475C15.736 20.475 15.3715 20.6133 15.3526 20.8458C15.3463 20.9275 15.6166 20.6887 15.9937 20.6887C16.3708 20.6887 16.6411 20.9275 16.6348 20.8458C16.6159 20.607 16.2514 20.475 15.9937 20.475ZM15.9937 20.3116C16.4776 20.3116 16.8673 20.5756 16.8673 20.9024C16.8673 21.2292 16.4776 21.4932 15.9937 21.4932C15.5097 21.4932 15.1201 21.2292 15.1201 20.9024C15.1201 20.5756 15.5097 20.3116 15.9937 20.3116ZM17.6781 17.301C17.3953 17.301 17.169 17.5273 17.169 17.8101C17.169 18.0929 17.3953 18.3192 17.6781 18.3192C17.9609 18.3192 18.1872 18.0929 18.1872 17.8101C18.1872 17.5335 17.9609 17.301 17.6781 17.301ZM14.3093 17.301C14.5921 17.301 14.8184 17.5273 14.8184 17.8101C14.8184 18.0929 14.5921 18.3192 14.3093 18.3192C14.0264 18.3192 13.8002 18.0929 13.8002 17.8101C13.8002 17.5335 14.0264 17.301 14.3093 17.301ZM15.9937 19.6893C16.8233 19.6893 17.4958 20.2362 17.4958 20.9024C17.4958 21.5749 16.8233 22.1154 15.9937 22.1154C15.1641 22.1154 14.4915 21.5686 14.4915 20.9024C14.4915 20.2299 15.1641 19.6893 15.9937 19.6893ZM15.9937 6.96191C20.9904 6.96191 25.038 11.0096 25.038 16.0062C25.038 16.3331 25.0192 16.6599 24.9877 16.9804C24.9375 16.8799 24.7678 16.7102 24.2398 16.4211C23.9318 16.2514 23.8627 16.0628 24.089 15.9497C24.4095 15.7863 24.6546 15.7046 24.6735 15.6417C24.6923 15.5789 24.774 15.3526 23.517 15.0886C23.3033 15.0446 23.2907 14.9755 23.3662 14.9063C23.9444 14.3155 24.001 14.171 23.9444 14.0767C23.9004 14.0076 23.7998 14.0013 23.7307 14.0013C23.2656 14.0013 23.0959 14.083 22.6874 14.1773C22.5365 14.215 22.3605 14.1647 22.4234 13.995C22.7942 13.0271 22.3417 13.3162 22.2286 13.3413C22.1154 13.3665 21.7572 13.5173 21.556 13.643C21.3549 13.7687 21.1664 13.7436 21.3298 13.4356C21.6126 12.9077 21.8829 12.4237 21.8012 12.342C21.7383 12.2854 21.3298 12.5306 20.9275 12.7883C20.6321 12.9768 20.4499 13.0082 20.5064 12.8511C20.5881 12.6248 20.5567 12.5871 20.5316 12.562C20.4499 12.4614 20.1796 12.6374 20.0979 12.6877C19.9219 12.8071 19.8842 12.6437 19.9973 12.3106C20.1796 11.7826 20.3744 11.2044 20.299 11.1415C20.2173 11.0661 19.8402 11.4181 19.4631 11.7763C19.2054 12.0152 19.0231 12.0969 19.0168 11.946C19.0106 11.7449 18.9603 11.7072 18.9226 11.7009C18.7529 11.6569 18.3569 12.1912 18.2878 12.2854C18.0741 12.5683 17.9484 12.518 17.9861 12.166C18.0678 11.3804 18.1746 10.337 18.0364 10.2993C17.8981 10.2616 17.3136 11.2358 17.0182 11.99C16.905 12.2854 16.7479 12.386 16.6599 12.1912C16.4902 11.8141 16.3017 10.0416 16 10.0354C15.6983 10.0354 15.5097 11.8141 15.34 12.1912C15.252 12.386 15.1012 12.2792 14.9818 11.99C14.6864 11.2358 14.1019 10.2616 13.9636 10.2993C13.8253 10.337 13.9259 11.3804 14.0139 12.166C14.0516 12.518 13.9259 12.5683 13.7122 12.2854C13.643 12.1912 13.2408 11.6632 13.0774 11.7009C13.0397 11.7135 12.9894 11.7449 12.9831 11.946C12.9768 12.0969 12.7946 12.0215 12.5369 11.7763C12.1598 11.4181 11.7826 11.0661 11.7009 11.1415C11.6255 11.2107 11.8204 11.7826 12.0026 12.3106C12.1158 12.6437 12.078 12.8008 11.9021 12.6877C11.8266 12.6374 11.5501 12.4551 11.4684 12.562C11.4495 12.5871 11.4118 12.6248 11.4935 12.8511C11.5501 13.0082 11.3741 12.9705 11.0724 12.7883C10.6639 12.5368 10.2616 12.2854 10.1988 12.342C10.1171 12.4174 10.3811 12.9077 10.6702 13.4356C10.8399 13.7436 10.645 13.7687 10.4439 13.643C10.2428 13.5173 9.88453 13.3665 9.7714 13.3413C9.65827 13.3162 9.20574 13.0271 9.57656 13.995C9.63941 14.1647 9.46343 14.215 9.31259 14.1773C8.90405 14.083 8.73435 14.0013 8.26925 14.0013C8.20012 14.0013 8.10584 14.0076 8.05556 14.0767C7.99899 14.171 8.05556 14.3155 8.63379 14.9063C8.70293 14.9818 8.69036 15.0446 8.48295 15.0886C7.22592 15.3526 7.30763 15.5789 7.32648 15.6417C7.34534 15.7046 7.59046 15.7863 7.911 15.9497C8.13726 16.0628 8.06813 16.2514 7.76016 16.4211C7.2322 16.7102 7.06251 16.8799 7.01222 16.9804C6.9808 16.6599 6.96194 16.3394 6.96194 16.0062C6.94937 11.0096 10.997 6.96191 15.9937 6.96191V6.96191Z" fill="#1A1A1A"/>
<path fill-rule="evenodd" clip-rule="evenodd" d="M28.2207 15.8291L28.6347 17.1347L30.0019 17.1284L28.8981 17.9319L29.3246 19.2312L28.2207 18.4278L27.1106 19.2312L27.5371 17.9319L26.4333 17.1284L27.8005 17.1347L28.2207 15.8291ZM16.0031 7.3678L16.4233 8.66712H17.7906L16.6805 9.47057L17.107 10.7699L16.0031 9.96645L14.8993 10.7699L15.3258 9.47057L14.2157 8.66712H15.5829L16.0031 7.3678ZM3.78553 15.8291L4.20575 17.1347L5.57301 17.1284L4.46916 17.9319L4.88938 19.2312L3.78553 18.4278L2.68168 19.2312L3.10817 17.9319L1.99805 17.1284L3.36531 17.1347L3.78553 15.8291Z" fill="white"/>
</svg>
